<?xml version="1.0" encoding="UTF-8" standalone="no"?>
<!-- Created with Inkscape (http://www.inkscape.org/) -->
<svg xmlns:inkscape="http://www.inkscape.org/namespaces/inkscape" xmlns:rdf="http://www.w3.org/1999/02/22-rdf-syntax-ns#" xmlns="http://www.w3.org/2000/svg" xmlns:xlink="http://www.w3.org/1999/xlink" xmlns:ns1="http://sozi.baierouge.fr" xmlns:cc="http://creativecommons.org/ns#" xmlns:sodipodi="http://sodipodi.sourceforge.net/DTD/sodipodi-0.dtd" xmlns:dc="http://purl.org/dc/elements/1.1/" id="svg2" xml:space="preserve" viewBox="0 0 36.363 31.481" version="1.1" inkscape:version="0.91 r13725">
  <defs id="defs6">
    <linearGradient id="linearGradient30" y2="-7.3984" gradientUnits="userSpaceOnUse" x2="34.936" gradientTransform="matrix(.43128 -.67384 -.67384 -.43128 .00015802 25.201)" y1="-7.3984" x1="7.064">
      <stop id="stop32" style="stop-color:#cbe2e8" offset="0"/>
      <stop id="stop34" style="stop-color:#b7ccd2" offset="1"/>
    </linearGradient>
    <linearGradient id="linearGradient130" y2="1.6846" gradientUnits="userSpaceOnUse" x2="-24.114" gradientTransform="matrix(.00028829 .8 .8 .0008 -.00017839 25.201)" y1="1.6846" x1="-26.889">
      <stop id="stop132" style="stop-color:#7cb8c1" offset="0"/>
      <stop id="stop134" style="stop-color:#3a585c" offset="1"/>
    </linearGradient>
    <radialGradient id="radialGradient148" gradientUnits="userSpaceOnUse" cy="-1.7939" cx="24.199" gradientTransform="matrix(.00019753 -.8 .59752 -.00019753 2.5069 25.2)" r="2.025">
      <stop id="stop150" style="stop-color:#ffffff" offset="0"/>
      <stop id="stop152" style="stop-color:#757b7d" offset="1"/>
    </radialGradient>
    <radialGradient id="radialGradient168" gradientUnits="userSpaceOnUse" cy="24.322" cx="-3.5601" gradientTransform="matrix(.7448 .29208 -.04384 .20448 5.1969 .948)" r=".68480">
      <stop id="stop170" style="stop-color:#7f8284" offset="0"/>
      <stop id="stop172" style="stop-color:#646769" offset="1"/>
    </radialGradient>
    <linearGradient id="linearGradient186" y2="21.059" gradientUnits="userSpaceOnUse" x2="-26.671" gradientTransform="matrix(.00025 .8 .8 .0008 .000136 25.201)" y1="21.059" x1="-29.871">
      <stop id="stop188" style="stop-color:#7cb8c1" offset="0"/>
      <stop id="stop190" style="stop-color:#3a585c" offset="1"/>
    </linearGradient>
    <radialGradient id="radialGradient204" gradientUnits="userSpaceOnUse" cy="-21.194" cx="26.744" gradientTransform="matrix(.00017204 -.8 .64944 -.00017204 30.72 25.192)" r="2.325">
      <stop id="stop206" style="stop-color:#ffffff" offset="0"/>
      <stop id="stop208" style="stop-color:#757b7d" offset="1"/>
    </radialGradient>
    <radialGradient id="radialGradient224" gradientUnits="userSpaceOnUse" cy="33.725" cx="13.845" gradientTransform="matrix(.75288 .27056 -.04704 .18824 8.1632 -7.452)" r=".85010">
      <stop id="stop226" style="stop-color:#7f8284" offset="0"/>
      <stop id="stop228" style="stop-color:#646769" offset="1"/>
    </radialGradient>
    <linearGradient id="linearGradient242" y2="29.287" gradientUnits="userSpaceOnUse" x2="24.8" gradientTransform="matrix(.8 0 0 -.8 0 25.201)" y1="26.412" x1="24.8">
      <stop id="stop244" style="stop-color:#7cb8c1" offset="0"/>
      <stop id="stop246" style="stop-color:#3a585c" offset="1"/>
    </linearGradient>
    <radialGradient id="radialGradient260" gradientUnits="userSpaceOnUse" cy="26.5" cx="24.7" gradientTransform="matrix(-3.4969e-8 -.8 -.51256 2.2406e-8 33.343 23.761)" r="2.0875">
      <stop id="stop262" style="stop-color:#ffffff" offset="0"/>
      <stop id="stop264" style="stop-color:#757b7d" offset="1"/>
    </radialGradient>
    <radialGradient id="radialGradient280" gradientUnits="userSpaceOnUse" cy="-15.052" cx="-30.431" gradientTransform="matrix(-.72776 .33224 .04744 .23728 -1.7117 16.642)" r=".63210">
      <stop id="stop282" style="stop-color:#7f8284" offset="0"/>
      <stop id="stop284" style="stop-color:#646769" offset="1"/>
    </radialGradient>
    <linearGradient id="linearGradient304" y2="-1.4224" gradientUnits="userSpaceOnUse" x2="28.209" gradientTransform="matrix(.78912 -.13152 -.14288 -.7872 -.00021858 25.201)" y1="-1.4224" x1="14.675">
      <stop id="stop306" style="stop-color:#e1f6fc" offset="0"/>
      <stop id="stop308" style="stop-color:#b7ccd2" offset="1"/>
    </linearGradient>
    <linearGradient id="linearGradient324" y2=".85250" gradientUnits="userSpaceOnUse" x2="28.172" gradientTransform="matrix(.78912 -.13128 -.14256 -.78728 .000072956 25.201)" y1=".85250" x1="14.613">
      <stop id="stop326" style="stop-color:#e1f6fc" offset="0"/>
      <stop id="stop328" style="stop-color:#b7ccd2" offset="1"/>
    </linearGradient>
    <linearGradient id="linearGradient356" y2="-22.847" gradientUnits="userSpaceOnUse" x2="27.487" gradientTransform="matrix(.32216 -.73224 -.73224 -.32216 .00038571 25.201)" y1="-22.847" x1="22.024">
      <stop id="stop358" style="stop-color:#85979c" offset="0"/>
      <stop id="stop360" style="stop-color:#9aafb5" offset=".18430"/>
      <stop id="stop362" style="stop-color:#9aafb5" offset="1"/>
    </linearGradient>
    <linearGradient id="linearGradient376" y2="-21.72" gradientUnits="userSpaceOnUse" x2="27.522" gradientTransform="matrix(.32216 -.73224 -.73224 -.32216 .00038571 25.201)" y1="-21.72" x1="22.06">
      <stop id="stop378" style="stop-color:#85979c" offset="0"/>
      <stop id="stop380" style="stop-color:#9aafb5" offset=".18430"/>
      <stop id="stop382" style="stop-color:#9aafb5" offset="1"/>
    </linearGradient>
    <linearGradient id="linearGradient430" y2="-10.905" gradientUnits="userSpaceOnUse" x2="25.658" gradientTransform="matrix(.01752 -.79984 -.79984 -.01752 -.00010158 25.201)" y1="-10.905" x1="10.829">
      <stop id="stop432" style="stop-color:#626f73" offset="0"/>
      <stop id="stop434" style="stop-color:#e0f8ff" offset="1"/>
    </linearGradient>
    <linearGradient id="linearGradient452" y2="-13.855" gradientUnits="userSpaceOnUse" x2="22.235" gradientTransform="matrix(-.10512 -.79304 -.79304 .10512 -.00042171 25.201)" y1="-13.855" x1="11.012">
      <stop id="stop454" style="stop-color:#bdbdbd" offset="0"/>
      <stop id="stop456" style="stop-color:#f4fbfc" offset=".0667"/>
      <stop id="stop458" style="stop-color:#f7fdff" offset=".2392"/>
      <stop id="stop460" style="stop-color:#e0e3e6" offset=".56470"/>
      <stop id="stop462" style="stop-color:#9c9c9c" offset="1"/>
    </linearGradient>
    <linearGradient id="linearGradient476" y2="-16.1" gradientUnits="userSpaceOnUse" x2="20.579" gradientTransform="matrix(-.22296 -.76832 -.76832 .22296 .00027042 25.201)" y1="-16.1" x1="8.917">
      <stop id="stop478" style="stop-color:#636363" offset="0"/>
      <stop id="stop480" style="stop-color:#888b8c" offset=".56470"/>
      <stop id="stop482" style="stop-color:#787878" offset="1"/>
    </linearGradient>
    <linearGradient id="linearGradient496" y2="-14.519" gradientUnits="userSpaceOnUse" x2="21.591" gradientTransform="matrix(-.14592 -.78656 -.78656 .14592 .00049908 25.201)" y1="-14.519" x1="10.352">
      <stop id="stop498" style="stop-color:#e6d651" offset="0"/>
      <stop id="stop500" style="stop-color:#e2d24f" offset=".1647"/>
      <stop id="stop502" style="stop-color:#d5c54a" offset="0.349"/>
      <stop id="stop504" style="stop-color:#c1af41" offset=".54510"/>
      <stop id="stop506" style="stop-color:#a49035" offset=".74120"/>
      <stop id="stop508" style="stop-color:#7f6926" offset=".94510"/>
      <stop id="stop510" style="stop-color:#745d22" offset="1"/>
    </linearGradient>
    <linearGradient id="linearGradient546" y2="6.2852" gradientUnits="userSpaceOnUse" x2="-21.106" gradientTransform="matrix(.00034782 .8 .8 .0008 .00015698 25.201)" y1="6.2852" x1="-23.406">
      <stop id="stop548" style="stop-color:#e5f9ff" offset="0"/>
      <stop id="stop550" style="stop-color:#556369" offset="1"/>
    </linearGradient>
    <radialGradient id="radialGradient564" gradientUnits="userSpaceOnUse" cy="-6.3936" cx="21.197" gradientTransform="matrix(.00023881 -.8 .66864 -.00023881 9.3896 25.198)" r="1.675">
      <stop id="stop566" style="stop-color:#ffffff" offset="0"/>
      <stop id="stop568" style="stop-color:#757b7d" offset="1"/>
    </radialGradient>
    <radialGradient id="radialGradient584" gradientUnits="userSpaceOnUse" cy="23.07" cx=".8779" gradientTransform="matrix(.75232 .27208 -.048 .19208 5.6072 2.7704)" r=".62470">
      <stop id="stop586" style="stop-color:#7f8284" offset="0"/>
      <stop id="stop588" style="stop-color:#646769" offset="1"/>
    </radialGradient>
    <linearGradient id="linearGradient602" y2="16.636" gradientUnits="userSpaceOnUse" x2="-23.066" gradientTransform="matrix(.00034782 .8 .8 .0008 .00015698 25.201)" y1="16.636" x1="-25.366">
      <stop id="stop604" style="stop-color:#e5f9ff" offset="0"/>
      <stop id="stop606" style="stop-color:#556369" offset="1"/>
    </linearGradient>
    <radialGradient id="radialGradient620" gradientUnits="userSpaceOnUse" cy="-16.744" cx="23.094" gradientTransform="matrix(.00023881 -.8 .66864 -.00023881 24.59 25.192)" r="1.6751">
      <stop id="stop622" style="stop-color:#ffffff" offset="0"/>
      <stop id="stop624" style="stop-color:#757b7d" offset="1"/>
    </radialGradient>
    <radialGradient id="radialGradient640" gradientUnits="userSpaceOnUse" cy="28.425" cx="10.496" gradientTransform="matrix(.75232 .27208 -.048 .19208 6.9087 -2.4352)" r=".62470">
      <stop id="stop642" style="stop-color:#7f8284" offset="0"/>
      <stop id="stop644" style="stop-color:#646769" offset="1"/>
    </radialGradient>
    <linearGradient id="linearGradient658" y2="16.556" gradientUnits="userSpaceOnUse" x2="-12.254" gradientTransform="matrix(.00031683 .8 .8 .0008 -.000066373 25.201)" y1="16.556" x1="-14.779">
      <stop id="stop660" style="stop-color:#e5f9ff" offset="0"/>
      <stop id="stop662" style="stop-color:#556369" offset="1"/>
    </linearGradient>
    <radialGradient id="radialGradient676" gradientUnits="userSpaceOnUse" cy="-16.646" cx="12.294" gradientTransform="matrix(.00021769 -.8 .65848 -.00021769 24.278 25.193)" r="1.8375">
      <stop id="stop678" style="stop-color:#ffffff" offset="0"/>
      <stop id="stop680" style="stop-color:#757b7d" offset="1"/>
    </radialGradient>
    <radialGradient id="radialGradient696" gradientUnits="userSpaceOnUse" cy="18.211" cx="13.393" gradientTransform="matrix(.7544 .26624 -.0444 .19232 4.1051 7.4128)" r=".676">
      <stop id="stop698" style="stop-color:#7f8284" offset="0"/>
      <stop id="stop700" style="stop-color:#646769" offset="1"/>
    </radialGradient>
    <linearGradient id="linearGradient714" y2="6.2305" gradientUnits="userSpaceOnUse" x2="-10.594" gradientTransform="matrix(.00031683 .8 .8 .0008 -.000066373 25.201)" y1="6.2305" x1="-13.119">
      <stop id="stop716" style="stop-color:#e5f9ff" offset="0"/>
      <stop id="stop718" style="stop-color:#556369" offset="1"/>
    </linearGradient>
    <radialGradient id="radialGradient732" gradientUnits="userSpaceOnUse" cy="-6.3472" cx="10.648" gradientTransform="matrix(.00021769 -.8 .65848 -.00021769 9.2568 25.198)" r="1.8375">
      <stop id="stop734" style="stop-color:#ffffff" offset="0"/>
      <stop id="stop736" style="stop-color:#757b7d" offset="1"/>
    </radialGradient>
    <radialGradient id="radialGradient752" gradientUnits="userSpaceOnUse" cy="13.257" cx="3.6055" gradientTransform="matrix(.7544 .26624 -.0444 .19232 2.9885 12.251)" r=".676">
      <stop id="stop754" style="stop-color:#7f8284" offset="0"/>
      <stop id="stop756" style="stop-color:#646769" offset="1"/>
    </radialGradient>
    <linearGradient id="linearGradient772" y2="-13.243" gradientUnits="userSpaceOnUse" x2="22.176" gradientTransform="matrix(-.0992 -.79384 -.79384 .0992 .00034356 25.201)" y1="-13.243" x1="10.284">
      <stop id="stop774" style="stop-color:#bdbdbd" offset="0"/>
      <stop id="stop776" style="stop-color:#f4fbfc" offset=".0667"/>
      <stop id="stop778" style="stop-color:#f7fdff" offset=".2392"/>
      <stop id="stop780" style="stop-color:#e0e3e6" offset=".56470"/>
      <stop id="stop782" style="stop-color:#8a8a8a" offset="1"/>
    </linearGradient>
    <linearGradient id="linearGradient796" y2="-11.95" gradientUnits="userSpaceOnUse" x2="18.704" gradientTransform="matrix(-.0992 -.79384 -.7908 .12328 -.00047506 25.201)" y1="-11.95" x1="12.859">
      <stop id="stop798" style="stop-color:#e2a8db" offset="0"/>
      <stop id="stop800" style="stop-color:#c794c1" offset=".26270"/>
      <stop id="stop804" style="stop-color:#856382" offset=".7647"/>
      <stop id="stop806" style="stop-color:#6b506a" offset="1"/>
    </linearGradient>
    <linearGradient id="linearGradient822" y2="-12.583" gradientUnits="userSpaceOnUse" x2="2.1742" gradientTransform="matrix(-.0992 -.79384 -.71936 .69472 .00027262 25.201)" y1="-12.583" x1="-3.6709">
      <stop id="stop824" style="stop-color:#b6fac5" offset="0"/>
      <stop id="stop826" style="stop-color:#91c99c" offset=".63140"/>
      <stop id="stop830" style="stop-color:#7dad85" offset="1"/>
    </linearGradient>
    <linearGradient id="linearGradient844" y2="-13.369" gradientUnits="userSpaceOnUse" x2="33.48" gradientTransform="matrix(-.0992 -.79384 -.84656 -.32288 -.00040487 25.201)" y1="-13.369" x1="27.635">
      <stop id="stop846" style="stop-color:#626693" offset="0"/>
      <stop id="stop848" style="stop-color:#4f5176" offset=".26270"/>
      <stop id="stop852" style="stop-color:#1f202e" offset=".7647"/>
      <stop id="stop854" style="stop-color:#0c0c12" offset="1"/>
    </linearGradient>
  </defs>
  <g id="g10" transform="matrix(1.25 0 0 -1.25 0 31.481)">
    <g id="g12">
      <path id="path14" style="fill-rule:evenodd;fill:#414a4d" d="m9.879 1.361c-5.574 0.933-8.371 1.441-8.399 1.519v0.52l25.801 3.043 0.559-0.602c0.215-0.215 0.199-0.441-0.039-0.68l-7.922-4.48c-0.852-0.453-1.414-0.68-1.68-0.68-2.773 0.453-5.547 0.906-8.32 1.36z" inkscape:connector-curvature="0"/>
      <path id="path16" style="fill-rule:evenodd;fill:#363d40" d="m9.48 1.72c-0.082 0.027-1.093 0.266-3.039 0.719-0.988 0.215-2 0.375-3.043 0.48l-1.918 0.242v0.239l25.801 3.043 0.559-0.602c0.215-0.215 0.199-0.441-0.039-0.68l-7.922-4.48c-0.719-0.402-1.238-0.629-1.559-0.68 0.028 0.184 0.028 0.371 0 0.559 0 0.375-0.172 0.531-0.519 0.48-1.039 0-3.121 0.121-6.239 0.36h0.317c0.027 0.105-0.317 0.187-1.039 0.242-0.801 0.023-1.254 0.051-1.36 0.078z" inkscape:connector-curvature="0"/>
      <path id="path18" style="fill-rule:evenodd;fill:#b7ccd2" d="m0.922 4.72-0.442 14.801c0.028 0.293 0.067 0.48 0.122 0.558 0.05 0.11 0.21 0.227 0.476 0.364l11 3.476c0.375 0.082 0.817 0.082 1.32 0 9.414-0.613 14.282-1.012 14.602-1.199 0.32-0.188 0.52-0.465 0.602-0.84l-0.043-14.918c0-0.48-0.239-0.91-0.719-1.281-5.414-3.094-8.399-4.719-8.961-4.883-0.317-0.105-0.731-0.117-1.238-0.039l-0.641 0.121c-2.535 0.371-5.078 0.758-7.641 1.16-5.121 0.801-7.746 1.25-7.879 1.36-0.16 0.105-0.292 0.359-0.402 0.757l-0.156 0.563z" inkscape:connector-curvature="0"/>
      <g id="g20">
        <g id="g22">
          <g id="g28">
            <path id="path36" style="fill-rule:evenodd;fill:url(#linearGradient30)" d="m0.922 4.72-0.442 14.801c0.028 0.293 0.067 0.48 0.122 0.558 0.05 0.11 0.21 0.227 0.476 0.364l11 3.476c0.375 0.082 0.817 0.082 1.32 0 9.414-0.613 14.282-1.012 14.602-1.199 0.32-0.188 0.52-0.465 0.602-0.84l-0.043-14.918c0-0.48-0.239-0.91-0.719-1.281-5.414-3.094-8.399-4.719-8.961-4.883-0.317-0.105-0.731-0.117-1.238-0.039l-0.641 0.121c-2.535 0.371-5.078 0.758-7.641 1.16-5.121 0.801-7.746 1.25-7.879 1.36-0.16 0.105-0.292 0.359-0.402 0.757l-0.156 0.563z" inkscape:connector-curvature="0"/>
          </g>
        </g>
      </g>
      <path id="path38" style="fill-rule:evenodd;fill:#9aafb5" d="m0.961 16.759-0.402 0.043-0.079 2.719c0.532 0.054 0.973 0.078 1.321 0.078h1.16c0.531-0.051 1.199-0.051 2 0l0.16-0.477c-0.293-0.027-0.601-0.082-0.922-0.16-0.64-0.137-1.039-0.281-1.199-0.441-0.188-0.188-0.359-0.52-0.52-1-0.132-0.453-0.199-0.84-0.199-1.16v-1.282l-1.32 0.282v1.398z" inkscape:connector-curvature="0"/>
      <path id="path40" style="fill-rule:evenodd;fill:#9aafb5" d="m3 3.282 0.121 0.758 5.199-0.879-5.082 0.758 0.043-0.238c0.051-0.188 0.117-0.305 0.199-0.359l11.321-1.762c0.211-0.051 0.347 0.094 0.398 0.441l-0.078 0.039h0.039l0.918-0.121 0.043-0.039 0.078-0.879-0.797 0.117v0.164l-12.402 2z" inkscape:connector-curvature="0"/>
      <path id="path42" style="fill-rule:evenodd;fill:#9aafb5" d="m2.039 14.161 0.359-6.519 0.442-0.403 0.558-2.398c0.215-0.375 0.614-0.668 1.204-0.879l-1.442 0.199c-0.082 0.239-0.133 0.52-0.16 0.84l-0.32 2.199-0.2-0.64-1.558-1.68-0.203 6.52 0.519 1.48 0.801 1.281z" inkscape:connector-curvature="0"/>
      <path id="path44" style="fill-rule:evenodd;fill:#9aafb5" d="m15.48 17.962 1.84-0.32 0.719-2.281v-2.52c-0.027-0.348-0.316-0.215-0.879 0.398l-0.359 0.481c-0.133 0.613-0.227 1.242-0.281 1.879-0.028 0.402-0.321 0.801-0.879 1.203l-0.883 0.52-0.039 0.558 0.761 0.082z" inkscape:connector-curvature="0"/>
      <path id="path46" style="fill-rule:evenodd;fill:#718085" d="m16.121 1.919h-0.043l-0.918 0.121 0.078 0.039-12.117 1.961 0.039 0.121 12.918-2 0.043-0.242z" inkscape:connector-curvature="0"/>
      <path id="path48" style="fill-rule:evenodd;fill:#718085" d="m2.48 6.56 0.2 0.64 0.32-2.199c0.027-0.32 0.078-0.601 0.16-0.84l-0.039-0.121-0.121-0.758 12.398-2v-0.16c-9.117 1.383-13.757 2.145-13.918 2.278-0.16 0.109-0.292 0.359-0.402 0.761l-0.156 0.559v0.16l1.558 1.68z" inkscape:connector-curvature="0"/>
      <path id="path50" style="fill-rule:evenodd;fill:#ffffff" d="m15.16 2.04h-0.039l-0.199-0.121-11.363 1.801-0.321 0.199 12-1.84-0.078-0.039z" inkscape:connector-curvature="0"/>
      <path id="path52" style="fill-rule:evenodd;fill:#9aafb5" d="m28.238 22.521c0.188-0.188 0.309-0.399 0.364-0.641l-0.043-14.918c0-0.48-0.239-0.91-0.719-1.281-5.414-3.094-8.399-4.719-8.961-4.883l-0.641-0.078c0.055 0.187 0.082 0.531 0.082 1.039l-0.039 16.32 0.52 0.481 0.519 0.16 8.918 3.801z" inkscape:connector-curvature="0"/>
      <path id="path54" style="fill-rule:evenodd;fill:#d6eaf0" d="m28.238 22.521-8.918-3.801-1.48-0.359-16.641 2.121 10.879 3.437c0.375 0.082 0.817 0.082 1.32 0 9.414-0.613 14.282-1.012 14.602-1.199l0.238-0.199z" inkscape:connector-curvature="0"/>
      <path id="path56" style="fill-rule:evenodd;fill:#b7ccd2" d="m26.078 8.04 0.281 8.641v-11.922l-0.281-0.16v2.922l-1.277 1.238v12.281l0.32 0.121v-12.16l0.957-0.961z" inkscape:connector-curvature="0"/>
      <path id="path58" style="fill-rule:evenodd;fill:#6e7d82" d="m25.84 7.962 0.281 8.68v-11.922l-0.281-0.16v2.922l-1.238 1.238v12.281l0.277 0.121v-12.16l0.961-1z" inkscape:connector-curvature="0"/>
      <path id="path60" style="fill-rule:evenodd;fill:#ffffff" d="m15.48 18.642-0.441-0.242-11.078 1.519h-1.199l1.519 0.242 11.199-1.519z" inkscape:connector-curvature="0"/>
      <path id="path62" style="fill-rule:evenodd;fill:#ffffff" d="m18.078 13.962h0.363v-3.723h-0.363v3.723z" inkscape:connector-curvature="0"/>
      <path id="path64" style="fill-rule:evenodd;fill:#ffffff" d="m0.961 16.759v-3.277l-0.402-0.039v3.277l0.402 0.039z" inkscape:connector-curvature="0"/>
      <path id="path66" style="fill-rule:evenodd;fill:#718085" d="m5.961 21.239 5.84 2c0.371 0.137 0.894 0.188 1.558 0.161l10.68-0.957c0.481-0.028 0.801-0.082 0.961-0.161 0.16-0.109 0.121-0.203-0.121-0.281l-5.918-2.32c-0.508-0.215-1.227-0.238-2.16-0.082l-10.321 1.281c-0.718 0.106-0.894 0.227-0.519 0.359z" inkscape:connector-curvature="0"/>
      <path id="path68" style="fill-rule:evenodd;fill:#576266" d="m6.48 20.88c-0.718 0.106-0.894 0.227-0.519 0.359l5.84 2c0.371 0.137 0.894 0.188 1.558 0.161l10.68-0.957c0.481-0.028 0.801-0.082 0.961-0.161 0.16-0.109 0.121-0.203-0.121-0.281l-1.559-0.601c-0.508 0.054-2.027 0.187-4.558 0.402-1.254 0.16-2.227 0.25-2.922 0.277-1.227 0.028-2.145-0.183-2.762-0.636-0.266-0.215-0.316-0.469-0.156-0.762 0.183-0.266 0.41-0.305 0.68-0.121l0.277 0.16c0.055-0.293 0.226-0.438 0.519-0.438 1.176-0.109 2.922-0.214 5.243-0.32l-0.68-0.281c-0.508-0.215-1.227-0.238-2.16-0.082l-10.321 1.281z" inkscape:connector-curvature="0"/>
      <path id="path70" style="fill-rule:evenodd;fill:#5b666b" d="m6.48 20.88c-0.718 0.106-0.894 0.227-0.519 0.359l5.84 2c0.265 0.11 0.558 0.161 0.879 0.161v-3.278l-6.2 0.758z" inkscape:connector-curvature="0"/>
      <path id="path72" style="fill-rule:evenodd;fill:#41494d" d="m8.559 20.759h-0.039l-0.161-0.117-1.879 0.238c-0.718 0.106-0.894 0.227-0.519 0.359l5.84 2c0.265 0.11 0.558 0.161 0.879 0.161v-2.239c-0.399 0.426-1.039 0.547-1.918 0.36-0.215-0.028-0.883-0.239-2-0.641-0.082 0-0.149-0.039-0.203-0.121z" inkscape:connector-curvature="0"/>
      <path id="path74" style="fill-rule:evenodd;fill:#8ea1a8" d="m12.68 20.88 7.359-0.758-1.078-0.441c-0.508-0.215-1.227-0.238-2.16-0.082l-5.801 0.723 1.68 0.558z" inkscape:connector-curvature="0"/>
      <path id="path76" style="fill-rule:evenodd;fill:#9aafb5" d="m7.16 20.802-0.68 0.078c-0.718 0.106-0.894 0.227-0.519 0.359l5.84 2c0.371 0.137 0.894 0.188 1.558 0.161l10.68-0.957c0.481-0.028 0.801-0.082 0.961-0.161 0.16-0.109 0.121-0.203-0.121-0.281l-0.758-0.281-10.519 0.922c-0.668 0.027-1.188-0.043-1.563-0.199l-4.879-1.641z" inkscape:connector-curvature="0"/>
      <path id="path78" style="fill-rule:evenodd;fill:#798a8f" d="m9.922 22.322c-1.469-0.481-2.309-0.801-2.524-0.961-0.16-0.133-0.183-0.309-0.078-0.52l-0.16-0.039-0.68 0.078c-0.718 0.106-0.894 0.227-0.519 0.359l5.84 2c0.371 0.137 0.894 0.188 1.558 0.161l10.68-0.957c0.481-0.028 0.801-0.082 0.961-0.161 0.16-0.109 0.121-0.203-0.121-0.281l-0.238-0.082-0.039 0.281-11.442 1.082c-0.32 0-0.492-0.093-0.519-0.281 0-0.133 0.054-0.254 0.16-0.359l-0.481-0.082c0.055 0.054 0.039 0.16-0.039 0.32-0.109 0.106-0.894-0.078-2.359-0.558z" inkscape:connector-curvature="0"/>
      <path id="path80" style="fill-rule:evenodd;fill:#9aafb5" d="m3.281 18.841c0.321 0.027 0.438 0 0.36-0.082l11.121-1.437 0.597-0.161 0.481-0.402 0.441-0.277c0.293-0.215 0.442-0.36 0.442-0.442l0.078-0.801c-0.559 0.696-1.16 1.161-1.801 1.403-0.398 0.16-2.266 0.48-5.598 0.957-2.855 0.402-4.601 0.629-5.242 0.683-0.613 0.051-1.094-0.203-1.441-0.761-0.293-0.481-0.438-0.961-0.438-1.442-0.136 0.055-0.203 0.11-0.203 0.16-0.023 0.536-0.023 0.883 0 1.043l0.563 1.239c0.027 0.054 0.078 0.105 0.16 0.16 0.133 0.105 0.293 0.16 0.48 0.16z" inkscape:connector-curvature="0"/>
      <path id="path82" style="fill-rule:evenodd;fill:#6e7d82" d="m25.602 5.919c0-0.293-0.082-0.437-0.243-0.437-0.187 0-0.281 0.144-0.281 0.437s0.094 0.442 0.281 0.442c0.161 0 0.243-0.145 0.243-0.442z" inkscape:connector-curvature="0"/>
      <path id="path84" style="fill-rule:evenodd;fill:#6e7d82" d="m27 6.521c0-0.266-0.066-0.399-0.199-0.399s-0.199 0.133-0.199 0.399c0 0.238 0.066 0.359 0.199 0.359s0.199-0.121 0.199-0.359z" inkscape:connector-curvature="0"/>
      <path id="path86" style="fill-rule:evenodd;fill:#588288" d="m0 19.88c0 0.293 0.121 0.563 0.359 0.801l0.36 0.32 2.562 0.758 0.758-0.078c0.293-0.027 0.469-0.121 0.52-0.281-0.106-0.024-0.2-0.051-0.278-0.078-0.16-0.083-0.203-0.161-0.121-0.243 0.133-0.183 0.547-0.277 1.238-0.277 0.188 0 0.336-0.082 0.442-0.242l-1-0.559-0.078-0.801-0.801 0.039c-0.641 0.11-1.281-0.21-1.922-0.957-0.453-0.535-0.531-1.281-0.238-2.242l-0.16-0.199-0.282-0.121-1.32 0.242-0.039 3.918z" inkscape:connector-curvature="0"/>
      <path id="path88" style="fill-rule:evenodd;fill:#588288" d="m2.84 7.239 0.039-0.519v-3.598c-0.106-0.187-0.238-0.269-0.399-0.242l-2.441 0.52v11.121l0.563 0.359v-0.398l1.437-0.321v-6.242l0.801-0.68z" inkscape:connector-curvature="0"/>
      <path id="path90" style="fill-rule:evenodd;fill:#588288" d="m14.199 17.72 0.121 1.32 0.918 0.403 1.043-0.204c0.774-0.105 1.332-0.144 1.68-0.117 0.851 0.078 1.508 0.278 1.961 0.598h0.719c0.16-0.027 0.386-0.133 0.679-0.32l0.039-0.957-0.757-0.524c-0.215-0.16-0.414-0.398-0.602-0.719-0.16-0.32-0.266-0.586-0.32-0.8-0.051-0.266-0.028-1.039 0.082-2.321l-1.321-0.48-1.359 0.16 0.039 1.203c0 0.77-0.199 1.453-0.598 2.039-0.164 0.266-0.601 0.465-1.324 0.598l-1 0.121z" inkscape:connector-curvature="0"/>
      <path id="path92" style="fill-rule:evenodd;fill:#436469" d="m20.879 6.759v-5.078l-0.32-0.281c-0.079-0.051-0.414-0.239-1-0.559-0.559-0.293-0.946-0.426-1.161-0.398-0.183 0.05-0.332 0.199-0.437 0.437l-0.121 0.359-0.399 4.442 0.719 6.441 1.481 0.481 0.48-0.082 0.199-5.239 0.559-0.523z" inkscape:connector-curvature="0"/>
      <path id="path94" style="fill-rule:evenodd;fill:#588288" d="m15.922 6.4 0.156 5.722 0.684 0.278 1.238-0.161 0.441-0.16c0.266-7.73 0.25-11.613-0.043-11.636-0.023 0-0.691 0.078-2 0.238l-1.277 0.16 0.078 4.758 0.723 0.801z" inkscape:connector-curvature="0"/>
      <path id="path96" style="fill-rule:evenodd;fill:#6799a0" d="m0.199 14.282-0.16 0.079v0.16l0.563 0.359v-0.398l1.437-0.321-0.437-0.16v-0.039l-1.403 0.32z" inkscape:connector-curvature="0"/>
      <path id="path98" style="fill-rule:evenodd;fill:#436469" d="m2.039 14.161v-6.242l0.801-0.68 0.039-0.519v-3.598c-0.106-0.187-0.238-0.269-0.399-0.242v4.281l-0.878 0.68v6.16l0.437 0.16z" inkscape:connector-curvature="0"/>
      <path id="path100" style="fill-rule:evenodd;fill:#436469" d="m18.281 18.482c0.481 0.05 0.957 0.172 1.442 0.359l1.558 0.602 0.039-0.043 0.039-0.957-0.757-0.524c-0.215-0.16-0.414-0.398-0.602-0.719-0.16-0.32-0.266-0.586-0.32-0.8-0.051-0.266-0.028-1.039 0.082-2.321l-1.321-0.48h-0.16v4.883z" inkscape:connector-curvature="0"/>
      <path id="path102" style="fill-rule:evenodd;fill:#6799a0" d="m17.68 18.443c-0.239 0-1.36 0.199-3.36 0.597l0.121 0.039 0.797 0.364 1.043-0.204c0.774-0.105 1.332-0.144 1.68-0.117 0.851 0.078 1.508 0.278 1.961 0.598h0.719c0.132-0.027 0.347-0.121 0.64-0.277l-1.562-0.602c-0.481-0.187-0.957-0.309-1.442-0.359l-0.597-0.039z" inkscape:connector-curvature="0"/>
      <path id="path104" style="fill-rule:evenodd;fill:#6799a0" d="m0.879 20.599c-0.266 0.082-0.387 0.16-0.359 0.242l0.199 0.16 2.562 0.758 0.758-0.078c0.293-0.027 0.469-0.121 0.52-0.281-0.106-0.024-0.2-0.051-0.278-0.078-0.16-0.083-0.203-0.161-0.121-0.243 0.133-0.183 0.547-0.277 1.238-0.277 0.137 0 0.243-0.043 0.321-0.121l-1.16-0.559-0.039-0.082-3.641 0.559z" inkscape:connector-curvature="0"/>
      <path id="path106" style="fill-rule:evenodd;fill:#436469" d="m4.52 20.04 0.039 0.082 1.16 0.559 0.121-0.121-1-0.559-0.078-0.801h-0.242v0.84z" inkscape:connector-curvature="0"/>
      <path id="path108" style="fill-rule:evenodd;fill:#436469" d="m2.281 18.88c0.293 0.242 0.774 0.359 1.438 0.359-0.614-0.05-1.172-0.371-1.68-0.957-0.453-0.535-0.531-1.281-0.238-2.242l-0.16-0.199-0.2-0.082c-0.136 0.641-0.187 1.176-0.16 1.602 0.024 0.558 0.36 1.066 1 1.519z" inkscape:connector-curvature="0"/>
      <path id="path110" style="fill-rule:evenodd;fill:#98d4dd" d="m0.84 20.599c-0.293-0.293-0.442-0.586-0.442-0.879l-0.039-3.84-0.32 0.082-0.039 3.918c0 0.293 0.121 0.563 0.359 0.801l0.36 0.32 2.562 0.758 0.68-0.039h-0.16l-2.563-0.758-0.398-0.363z" inkscape:connector-curvature="0"/>
      <path id="path112" style="fill-rule:evenodd;fill:#98d4dd" d="m0.379 20.482c0.066 0.07 0.164 0.148 0.301 0.238l0.32 0.16 0.398-0.281 2.961-0.598-3.718 0.481c-0.118 0.019-0.203 0.019-0.262 0z" inkscape:connector-curvature="0"/>
      <path id="path114" style="fill-rule:evenodd;fill:#98d4dd" d="m21.281 19.443c-0.426-0.161-0.855-0.336-1.281-0.524-0.852-0.344-1.32-0.558-1.398-0.637-0.11-0.136-0.188-0.656-0.243-1.562l-0.039-2.719c-0.008 0.625-0.035 1.266-0.082 1.918-0.105 1.469-0.277 2.242-0.519 2.32l-3.36 0.68c2.266-0.344 3.575-0.492 3.918-0.437 0.348 0.05 1.348 0.371 3.004 0.961z" inkscape:connector-curvature="0"/>
      <path id="path116" style="fill-rule:evenodd;fill:#98d4dd" d="m20.16 12.361c-0.64-0.375-1.105-0.586-1.398-0.641-0.188-0.027-0.254-0.785-0.203-2.281 0-0.852 0.043-2.371 0.121-4.559 0.027-2.105-0.067-3.586-0.282-4.441l0.082 1.043c0.028 0.425-0.066 3.851-0.281 10.277l-1.922 0.363 0.282 0.078c0.242 0.028 0.519-0.011 0.839-0.121 0.641-0.265 1.563-0.172 2.762 0.282z" inkscape:connector-curvature="0"/>
      <path id="path118" style="fill-rule:evenodd;fill:#98d4dd" d="m0.039 14.521 0.481 0.199-0.321-0.438 1.199-0.32-0.957-0.082c-0.082-0.078-0.121-0.719-0.121-1.918l-0.281-8.562v11.121z" inkscape:connector-curvature="0"/>
      <g id="g120">
        <g id="g122">
          <g id="g128">
            <path id="path136" style="fill-rule:evenodd;fill:url(#linearGradient130)" d="m2.281 4.919c0-0.344-0.093-0.64-0.281-0.879-0.16-0.242-0.375-0.359-0.641-0.359-0.265 0-0.492 0.117-0.679 0.359-0.188 0.239-0.282 0.535-0.282 0.879 0 0.348 0.094 0.641 0.282 0.883 0.187 0.238 0.414 0.359 0.679 0.359 0.266 0 0.481-0.121 0.641-0.359 0.188-0.242 0.281-0.535 0.281-0.883z" inkscape:connector-curvature="0"/>
          </g>
        </g>
      </g>
      <g id="g138">
        <g id="g140">
          <g id="g146">
            <path id="path154" style="fill-rule:evenodd;fill:url(#radialGradient148)" d="m2.16 4.88c0-0.238-0.066-0.453-0.199-0.641-0.133-0.183-0.293-0.277-0.481-0.277-0.187 0-0.359 0.09-0.519 0.277-0.133 0.188-0.199 0.403-0.199 0.641 0 0.27 0.066 0.496 0.199 0.68 0.16 0.187 0.332 0.281 0.519 0.281 0.188 0 0.348-0.094 0.481-0.281 0.133-0.184 0.199-0.41 0.199-0.68z" inkscape:connector-curvature="0"/>
          </g>
        </g>
      </g>
      <path id="path156" style="fill-rule:evenodd;fill:#c3c4c4" d="m1.961 5.2 0.078-0.359-1.039-0.398-0.078 0.359 1.039 0.398z" inkscape:connector-curvature="0"/>
      <g id="g158">
        <g id="g160">
          <g id="g166">
            <path id="path174" style="fill-rule:evenodd;fill:url(#radialGradient168)" d="m1.961 5.2 0.078-0.32-1.039-0.398-0.078 0.32 1.039 0.398z" inkscape:connector-curvature="0"/>
          </g>
        </g>
      </g>
      <g id="g176">
        <g id="g178">
          <g id="g184">
            <path id="path192" style="fill-rule:evenodd;fill:url(#linearGradient186)" d="m18 2.72c0-0.398-0.105-0.734-0.32-1-0.239-0.266-0.52-0.398-0.84-0.398s-0.586 0.132-0.801 0.398c-0.238 0.266-0.359 0.602-0.359 1 0 0.375 0.121 0.707 0.359 1 0.215 0.266 0.481 0.402 0.801 0.402s0.601-0.136 0.84-0.402c0.215-0.293 0.32-0.625 0.32-1z" inkscape:connector-curvature="0"/>
          </g>
        </g>
      </g>
      <g id="g194">
        <g id="g196">
          <g id="g202">
            <path id="path210" style="fill-rule:evenodd;fill:url(#radialGradient204)" d="m17.879 2.681c0-0.293-0.078-0.531-0.238-0.719-0.188-0.215-0.403-0.32-0.641-0.32s-0.441 0.105-0.602 0.32c-0.183 0.188-0.277 0.426-0.277 0.719s0.09 0.547 0.277 0.762c0.161 0.211 0.364 0.316 0.602 0.316s0.453-0.105 0.641-0.316c0.16-0.215 0.238-0.469 0.238-0.762z" inkscape:connector-curvature="0"/>
          </g>
        </g>
      </g>
      <path id="path212" style="fill-rule:evenodd;fill:#c3c4c4" d="m17.641 3.04 0.078-0.398-1.321-0.481-0.078 0.399 1.321 0.48z" inkscape:connector-curvature="0"/>
      <g id="g214">
        <g id="g216">
          <g id="g222">
            <path id="path230" style="fill-rule:evenodd;fill:url(#radialGradient224)" d="m17.641 3.04 0.078-0.359-1.321-0.481-0.078 0.36 1.321 0.48z" inkscape:connector-curvature="0"/>
          </g>
        </g>
      </g>
      <g id="g232">
        <g id="g234">
          <g id="g240">
            <path id="path248" style="fill-rule:evenodd;fill:url(#linearGradient242)" d="m19 3.04c0 0.348 0.078 0.641 0.238 0.883 0.188 0.266 0.387 0.399 0.602 0.399 0.238 0 0.441-0.133 0.601-0.399 0.161-0.242 0.239-0.535 0.239-0.883 0-0.375-0.078-0.679-0.239-0.918-0.16-0.242-0.363-0.359-0.601-0.359-0.215 0-0.414 0.117-0.602 0.359-0.16 0.266-0.238 0.571-0.238 0.918z" inkscape:connector-curvature="0"/>
          </g>
        </g>
      </g>
      <g id="g250">
        <g id="g252">
          <g id="g258">
            <path id="path266" style="fill-rule:evenodd;fill:url(#radialGradient260)" d="m19.121 3.001c0 0.266 0.067 0.492 0.199 0.68 0.106 0.187 0.239 0.281 0.399 0.281 0.426 0 0.64-0.32 0.64-0.961 0-0.265-0.066-0.492-0.199-0.679-0.105-0.188-0.254-0.282-0.441-0.282-0.16 0-0.293 0.094-0.399 0.282-0.132 0.187-0.199 0.414-0.199 0.679z" inkscape:connector-curvature="0"/>
          </g>
        </g>
      </g>
      <path id="path268" style="fill-rule:evenodd;fill:#c3c4c4" d="m20.16 2.521-0.922 0.441 0.043 0.36 0.957-0.403-0.078-0.398z" inkscape:connector-curvature="0"/>
      <g id="g270">
        <g id="g272">
          <g id="g278">
            <path id="path286" style="fill-rule:evenodd;fill:url(#radialGradient280)" d="m20.16 2.56-0.922 0.441 0.043 0.321 0.957-0.403-0.078-0.359z" inkscape:connector-curvature="0"/>
          </g>
        </g>
      </g>
      <path id="path288" style="fill-rule:evenodd;fill:#b7ccd2" d="m6.48 20.88c-0.402 0.055-0.625 0.094-0.679 0.121-0.133 0.051-0.133 0.149 0 0.281v0.079c0.426-0.106 1.277-0.227 2.558-0.36l10.282-1.039 0.281-0.281c-0.535-0.188-1.242-0.215-2.121-0.082l-10.321 1.281z" inkscape:connector-curvature="0"/>
      <path id="path290" style="fill-rule:evenodd;fill:#9aafb5" d="m24.922 22.282c0.051-0.054 0.078-0.121 0.078-0.203v-0.039l-5.68-2.199v0.16l-0.16 0.039v0.039c0.32 0.055 0.828 0.215 1.52 0.481l3.879 1.519 0.043 0.043 0.277 0.117 0.043 0.043z" inkscape:connector-curvature="0"/>
      <path id="path292" style="fill-rule:evenodd;fill:#b7ccd2" d="m24.602 22.122 0.117 0.239h0.043l0.117-0.122-0.277-0.117z" inkscape:connector-curvature="0"/>
      <g id="g294">
        <g id="g296">
          <g id="g302">
            <path id="path310" style="fill-rule:evenodd;fill:url(#linearGradient304)" d="m24.602 22.122 0.117 0.239h0.043l0.117-0.122-0.277-0.117z" inkscape:connector-curvature="0"/>
          </g>
        </g>
      </g>
      <path id="path312" style="fill-rule:evenodd;fill:#b7ccd2" d="m12.68 23.4c0.242 0.082 0.508 0.082 0.8 0l11.161-1-0.52-0.278-4.601-1.679-2.04-0.121-11.242 1.16 6.442 1.918z" inkscape:connector-curvature="0"/>
      <g id="g314">
        <g id="g316">
          <g id="g322">
            <path id="path330" style="fill-rule:evenodd;fill:url(#linearGradient324)" d="m12.68 23.4c0.242 0.082 0.508 0.082 0.8 0l11.161-1-0.52-0.278-4.601-1.679-2.04-0.121-11.242 1.16 6.442 1.918z" inkscape:connector-curvature="0"/>
          </g>
        </g>
      </g>
      <path id="path332" style="fill-rule:evenodd;fill:#ffffff" d="m6.238 21.482h-0.476l-0.043 0.117 6.519 1.961 0.364 0.082c0.21 0.051 0.476 0.051 0.796 0 7.336-0.586 11.094-0.934 11.282-1.043l0.16-0.156 0.082-0.161-0.043-0.043-0.117 0.122h-0.043l0.043 0.082-0.121-0.043-11.161 1c-0.292 0.082-0.558 0.082-0.8 0l-6.442-1.918z" inkscape:connector-curvature="0"/>
      <path id="path334" style="fill-rule:evenodd;fill:#ffffff" d="m8.359 21.001c-1.199 0.133-2.027 0.254-2.48 0.36h-0.078l-0.039 0.121h0.476l12.203-1.282 0.399-0.078 0.082-0.082h0.238l0.16-0.039-0.718 0.039 0.039-0.078-10.282 1.039z" inkscape:connector-curvature="0"/>
      <path id="path336" style="fill-rule:evenodd;fill:#ffffff" d="m18.961 19.681h-0.039l-0.281 0.281-0.039 0.078 0.718-0.039v-0.16l-0.359-0.16z" inkscape:connector-curvature="0"/>
      <path id="path338" style="fill-rule:evenodd;fill:#ffffff" d="m24.762 22.443-0.16-0.321-0.043-0.043-3.879-1.519c-0.692-0.266-1.2-0.426-1.52-0.481l-0.039-0.039h-0.199l-0.082 0.082-1.36 0.2 2.04 0.121 4.601 1.679 0.52 0.278 0.121 0.043z" inkscape:connector-curvature="0"/>
      <path id="path340" style="fill-rule:evenodd;fill:#6f7d82" d="m25.359 13.282c0.293 0.184 0.414 0.704 0.36 1.559l-0.078 2.641c0.558 0.211 0.867-0.016 0.918-0.68l0.039-2.723c0.054-0.851-0.051-1.359-0.321-1.519l-2.558-1.321c-0.348-0.132-0.625-0.144-0.84-0.039-0.238 0.133-0.371 0.36-0.399 0.68l0.321 0.082 2.558 1.32z" inkscape:connector-curvature="0"/>
      <path id="path342" style="fill-rule:evenodd;fill:#555f63" d="m25.68 16.802-0.039 0.68c0.558 0.211 0.867-0.016 0.918-0.68l0.043-2.723c0.05-0.851-0.055-1.359-0.321-1.519l-2.558-1.321c-0.535-0.21-0.911-0.132-1.121 0.243l0.277 0.039c0.375 0 0.91 0.16 1.601 0.48 0.641 0.266 1.133 0.531 1.481 0.801 0.238 0.16 0.375 0.387 0.398 0.68-0.05 0.425-0.078 0.785-0.078 1.078 0 1.492-0.093 2.254-0.281 2.281-0.105 0.027-0.215 0.012-0.32-0.039z" inkscape:connector-curvature="0"/>
      <path id="path344" style="fill-rule:evenodd;fill:#4c5559" d="m23.441 16.599 2.079 0.844 0.281 0.078 0.16-0.078c-0.32-0.508-0.336-1.293-0.039-2.364-0.082-0.078-0.121-0.144-0.121-0.199-0.055-0.133-0.039-0.266 0.039-0.398 0.082-0.133 0.187-0.215 0.32-0.243l-0.039-0.039v-0.718c0.024-0.321-0.027-0.547-0.16-0.68-0.242-0.242-0.684-0.508-1.32-0.801-0.055-0.027-0.36-0.148-0.918-0.359-0.375-0.133-0.657-0.281-0.844-0.442-0.293 0.133-0.438 0.387-0.438 0.762l-0.043 3.039c0 0.774 0.348 1.305 1.043 1.598z" inkscape:connector-curvature="0"/>
      <g id="g346">
        <g id="g348">
          <g id="g354">
            <path id="path364" style="fill-rule:evenodd;fill:url(#linearGradient356)" d="m22.68 13.04v3l3.359 1.36 0.121-2.879-3.48-1.481z" inkscape:connector-curvature="0"/>
          </g>
        </g>
      </g>
      <g id="g366">
        <g id="g368">
          <g id="g374">
            <path id="path384" style="fill-rule:evenodd;fill:url(#linearGradient376)" d="m22.719 11.239 0.043 1.641 3.398 1.481 0.039-1.602-3.48-1.52z" inkscape:connector-curvature="0"/>
          </g>
        </g>
      </g>
      <path id="path386" style="fill-rule:evenodd;fill:#5b898f" d="m27.879 15.482 0.723 0.32 0.238-0.082c-0.028-0.531-0.067-2.051-0.117-4.559-0.028-2.214-0.071-3.496-0.121-3.839-0.133-0.829-0.414-1.415-0.84-1.762-0.242-0.211-0.442-0.293-0.602-0.238l0.082 3.597 0.637 1.36v5.203z" inkscape:connector-curvature="0"/>
      <path id="path388" style="fill-rule:evenodd;fill:#6799a0" d="m28.68 15.88 0.32-0.039 0.078-3.801c0.027-2.64 0-4.187-0.078-4.64-0.16-0.825-0.414-1.371-0.762-1.641-0.211-0.211-0.437-0.332-0.679-0.359l0.043 3.601 0.636 1.36 0.442 5.519z" inkscape:connector-curvature="0"/>
      <path id="path390" style="fill-rule:evenodd;fill:#436469" d="m28.078 15.482 0.762 0.277 0.082-3.797c0.023-2.64 0-4.187-0.082-4.64-0.106-0.801-0.36-1.348-0.762-1.641-0.211-0.188-0.437-0.309-0.68-0.359l0.082 3.597 0.598 1.36v5.203z" inkscape:connector-curvature="0"/>
      <path id="path392" style="fill-rule:evenodd;fill:#5b898f" d="m28.719 21.443c-0.028-0.883-0.172-2.11-0.442-3.684h-0.316c0.051 1.254-0.016 2.176-0.199 2.762-0.028 0.187-0.297 0.215-0.801 0.078-0.563-0.211-0.949-0.344-1.16-0.399l-0.199 0.039v1.321l2.558 1.199 0.32-0.16c0.188-0.211 0.266-0.598 0.239-1.156z" inkscape:connector-curvature="0"/>
      <path id="path394" style="fill-rule:evenodd;fill:#6799a0" d="m28.84 22.56c0.187-0.211 0.265-0.598 0.238-1.16-0.023-0.879-0.023-2 0-3.36l-0.758-0.281c0.051 1.254-0.015 2.176-0.199 2.762-0.055 0.265-0.43 0.293-1.121 0.078l-1.039-0.36v1.282l2.559 1.238 0.32-0.199z" inkscape:connector-curvature="0"/>
      <path id="path396" style="fill-rule:evenodd;fill:#77b0b9" d="m28.801 22.361c0.105-0.239 0.105-0.442 0-0.602-0.055-0.133-0.133-0.199-0.242-0.199l-1.68-0.36 0.043 0.039c0.183 0.161 0.226 0.36 0.117 0.602-0.133 0.215-0.305 0.254-0.519 0.121-0.211-0.16-0.52-0.387-0.918-0.68l-1 0.118v0.082c0 0.078 0.023 0.132 0.078 0.16 1.734 0.508 2.398 0.785 2 0.84l-2.559 0.277v0.203l2.277-0.121c1.524-0.105 2.321-0.266 2.403-0.48z" inkscape:connector-curvature="0"/>
      <path id="path398" style="fill-rule:evenodd;fill:#6799a0" d="m26.719 21.4-2.16 0.199 2.121 1.043c0.054 0.027 0 0.051-0.16 0.078-0.293 0.027-0.532 0.055-0.719 0.082l-1.68 0.16 0.758 0.199 1.883-0.121c1.25-0.105 1.929-0.265 2.039-0.48 0.078-0.238 0.078-0.438 0-0.598-0.082-0.137-0.176-0.203-0.281-0.203l-1.801-0.359z" inkscape:connector-curvature="0"/>
      <path id="path400" style="fill-rule:evenodd;fill:#436469" d="m28.68 22.521c0.215-0.215 0.308-0.602 0.281-1.16-0.055-0.879-0.055-1.985 0-3.321l-0.762-0.32c0.055 1.094-0.011 2.016-0.199 2.762-0.055 0.265-0.441 0.293-1.16 0.078l-1.039-0.36v1.282l2.597 1.238 0.282-0.199z" inkscape:connector-curvature="0"/>
      <path id="path402" style="fill-rule:evenodd;fill:#3a403c" d="m19.52 22.72c0.773-0.344 0.695-0.719-0.239-1.121-0.883-0.371-2-0.57-3.359-0.598-1.602-0.054-2.883 0.121-3.844 0.52-0.984 0.426-0.945 0.855 0.121 1.281 0.989 0.398 2.375 0.547 4.16 0.437 1.52-0.078 2.575-0.253 3.161-0.519z" inkscape:connector-curvature="0"/>
      <path id="path404" style="fill-rule:evenodd;fill:#9e5936" d="m19.719 24.2v-1.918c-0.028-0.269-0.41-0.523-1.16-0.761-0.747-0.215-1.586-0.321-2.52-0.321-1.066 0-2.039 0.094-2.918 0.282-0.961 0.238-1.426 0.504-1.402 0.8v1.918h8z" inkscape:connector-curvature="0"/>
      <path id="path406" style="fill-rule:evenodd;fill:#7c462a" d="m12.84 22.56c0 0.695 0.16 1.133 0.48 1.32l1.918-0.48c-0.586-0.184-0.84-0.481-0.758-0.879 0.055-0.321 0.399-0.586 1.04-0.801 0.828-0.293 1.867-0.293 3.121 0 0.425 0.105 0.785 0.281 1.078 0.519l-0.117-0.199c-0.59-0.347-1.668-0.586-3.243-0.718-0.906-0.055-1.734 0.066-2.48 0.359-0.691 0.266-1.039 0.558-1.039 0.879z" inkscape:connector-curvature="0"/>
      <path id="path408" style="fill-rule:evenodd;fill:#673924" d="m13.121 21.482c-0.961 0.238-1.426 0.504-1.402 0.8v1.918h0.441l1.199-0.281-0.039-0.039c-0.32-0.187-0.48-0.625-0.48-1.32 0-0.321 0.348-0.613 1.039-0.879 0.746-0.293 1.574-0.414 2.48-0.359 1.575 0.132 2.653 0.371 3.243 0.718-0.215-0.238-0.668-0.441-1.364-0.597-0.691-0.161-1.426-0.243-2.199-0.243-1.066 0-2.039 0.094-2.918 0.282z" inkscape:connector-curvature="0"/>
      <path id="path410" style="fill-rule:evenodd;fill:#da7b4b" d="m19.16 24.72c0.774-0.371 0.762-0.734-0.039-1.078-0.746-0.348-1.773-0.52-3.082-0.52-1.437 0-2.613 0.145-3.519 0.438-1.04 0.347-1.106 0.722-0.2 1.121 0.907 0.398 2.188 0.558 3.84 0.48 1.414-0.054 2.414-0.199 3-0.441z" inkscape:connector-curvature="0"/>
      <path id="path412" style="fill-rule:evenodd;fill:#e39670" d="m15.68 24.521c-0.106 0.16-0.188 0.254-0.239 0.281-0.16 0.023-0.613 0.023-1.363 0-0.637-0.027-1.144-0.121-1.519-0.281-0.371-0.16-0.653-0.282-0.84-0.36 0 0.188 0.203 0.36 0.601 0.52l0.321 0.121c0.984 0.184 1.879 0.277 2.679 0.277 0.852-0.027 1.559-0.226 2.121-0.597 0.399-0.106 0.84-0.176 1.321-0.2 0.558-0.027 0.84 0.024 0.84 0.161 0.238-0.293 0.105-0.547-0.403-0.762-0.027 0.027-0.133 0.039-0.32 0.039-0.32-0.027-0.906 0.066-1.758 0.281-0.883 0.215-1.359 0.387-1.441 0.52z" inkscape:connector-curvature="0"/>
      <path id="path414" style="fill-rule:evenodd;fill:#ecc1ab" d="m17.441 24.482c-0.562 0.371-1.269 0.57-2.121 0.597-0.8 0-1.691-0.093-2.679-0.277 0.933 0.32 2.171 0.437 3.718 0.359 1.332-0.054 2.266-0.199 2.801-0.441 0.188-0.078 0.332-0.172 0.442-0.277 0-0.137-0.282-0.188-0.84-0.161-0.481 0.024-0.922 0.094-1.321 0.2z" inkscape:connector-curvature="0"/>
      <path id="path416" style="fill-rule:evenodd;fill:#e39670" d="m13.359 23.482c1.039-0.243 2.36-0.336 3.961-0.282-0.535-0.05-0.961-0.078-1.281-0.078-1.547 0-2.773 0.172-3.68 0.52 0.348 0 0.68-0.055 1-0.16z" inkscape:connector-curvature="0"/>
      <path id="path418" style="fill-rule:evenodd;fill:#ffffff" d="m5 17.079 8.719-1.238c0.347-0.055 0.64-0.227 0.883-0.519 0.238-0.266 0.359-0.575 0.359-0.922l-0.039-9.641c0-0.344-0.121-0.625-0.363-0.84-0.239-0.183-0.532-0.254-0.879-0.199l-8.68 1.441c-0.348 0.028-0.625 0.188-0.84 0.481-0.238 0.265-0.359 0.574-0.359 0.918v9.441c0 0.348 0.121 0.625 0.359 0.84 0.215 0.188 0.492 0.266 0.84 0.238z" inkscape:connector-curvature="0"/>
      <g id="g420">
        <g id="g422">
          <g id="g428">
            <path id="path436" style="fill-rule:evenodd;fill:url(#linearGradient430)" d="m4.641 17.322 8.757-1.243c0.348-0.05 0.641-0.211 0.883-0.48 0.239-0.293 0.344-0.613 0.321-0.957l-0.043-9.602c0-0.347-0.118-0.625-0.36-0.84-0.238-0.187-0.519-0.253-0.84-0.199l-8.718 1.399c-0.321 0.054-0.586 0.226-0.801 0.519-0.238 0.27-0.36 0.574-0.36 0.922v9.438c0 0.347 0.122 0.613 0.36 0.8 0.215 0.215 0.48 0.297 0.801 0.243z" inkscape:connector-curvature="0"/>
          </g>
        </g>
      </g>
      <path id="path438" style="fill-rule:evenodd;fill:#8da0a6" d="m5.199 16.962 7.922-1.16c0.293-0.055 0.559-0.203 0.801-0.441 0.211-0.239 0.316-0.52 0.316-0.84l-0.039-8.762c0-0.316-0.105-0.57-0.32-0.758-0.238-0.187-0.504-0.254-0.801-0.199l-7.918 1.32c-0.265 0.024-0.508 0.172-0.719 0.438-0.214 0.265-0.32 0.547-0.32 0.84v8.562c0 0.32 0.106 0.57 0.32 0.758 0.211 0.187 0.465 0.266 0.758 0.242z" inkscape:connector-curvature="0"/>
      <path id="path440" style="fill-rule:evenodd;fill:#bdced4" d="m6 15.239 6.398-0.878c0.243-0.028 0.457-0.133 0.641-0.321 0.16-0.215 0.242-0.441 0.242-0.679l-0.043-6.719c0-0.242-0.078-0.426-0.238-0.563-0.188-0.156-0.398-0.211-0.641-0.156l-6.359 0.879c-0.238 0.023-0.441 0.145-0.602 0.359-0.183 0.188-0.277 0.399-0.277 0.641v6.719c0 0.238 0.094 0.426 0.277 0.558 0.161 0.137 0.364 0.188 0.602 0.16z" inkscape:connector-curvature="0"/>
      <g id="g442">
        <g id="g444">
          <g id="g450">
            <path id="path464" style="fill-rule:evenodd;fill:url(#linearGradient452)" d="m6.121 15.4 6.277-0.879c0.243-0.055 0.457-0.172 0.641-0.36 0.16-0.187 0.242-0.414 0.242-0.679l-0.043-6.68c0-0.242-0.078-0.426-0.238-0.563-0.188-0.16-0.398-0.21-0.641-0.16l-6.238 0.883c-0.242 0.024-0.441 0.145-0.601 0.36-0.161 0.183-0.239 0.398-0.239 0.64v6.68c0 0.238 0.078 0.426 0.239 0.558 0.16 0.161 0.359 0.227 0.601 0.2z" inkscape:connector-curvature="0"/>
          </g>
        </g>
      </g>
      <g id="g466">
        <g id="g468">
          <g id="g474">
            <path id="path484" style="fill-rule:evenodd;fill:url(#linearGradient476)" d="m5.68 15.322c-0.133-0.133-0.2-0.309-0.2-0.52v-6.68c0-0.242 0.094-0.457 0.282-0.64 0.16-0.215 0.359-0.336 0.597-0.36l6.243-0.883c0.16-0.027 0.304 0 0.437 0.083l-0.117-0.122-0.281-0.121h-0.282l-6.238 0.883c-0.242 0.024-0.441 0.145-0.601 0.36-0.161 0.183-0.239 0.398-0.239 0.64v6.68l0.039 0.277 0.039 0.121 0.082 0.082 0.239 0.2z" inkscape:connector-curvature="0"/>
          </g>
        </g>
      </g>
      <g id="g486">
        <g id="g488">
          <g id="g494">
            <path id="path512" style="fill-rule:evenodd;fill:url(#linearGradient496)" d="m9.48 14.2c0.106 0.028 0.293-0.347 0.559-1.121 0.16-0.398 0.293-0.797 0.402-1.199l1.84-0.398c0.184-0.028 0.25-0.121 0.199-0.282-0.027-0.132-0.132-0.265-0.32-0.398-0.238-0.16-0.707-0.574-1.398-1.242l0.238-1.559c0.16-0.668-0.012-0.867-0.52-0.601-0.773 0.613-1.226 0.922-1.359 0.922-0.48-0.215-1-0.442-1.562-0.68-0.344-0.16-0.52-0.176-0.52-0.043 0.109 0.187 0.16 0.336 0.16 0.441l0.281 1.719c-0.242 0.32-0.535 0.656-0.878 1-0.243 0.27-0.403 0.52-0.481 0.762-0.109 0.238-0.082 0.371 0.078 0.398l1.922 0.121c0.238 0.399 0.426 0.774 0.559 1.121 0.215 0.559 0.48 0.907 0.8 1.039z" inkscape:connector-curvature="0"/>
          </g>
        </g>
      </g>
      <path id="path514" style="fill-rule:evenodd;fill:#ffffff" d="m5 17.079 8.719-1.238c0.347-0.055 0.64-0.227 0.883-0.519 0.238-0.266 0.359-0.575 0.359-0.922l-0.039-9.641c0-0.344-0.121-0.625-0.363-0.84-0.239-0.183-0.532-0.254-0.879-0.199l-8.68 1.441c-0.348 0.028-0.625 0.188-0.84 0.481-0.238 0.265-0.359 0.574-0.359 0.918v9.441c0 0.348 0.121 0.625 0.359 0.84 0.215 0.188 0.492 0.266 0.84 0.238z" inkscape:connector-curvature="0"/>
      <g id="g516">
        <g id="g518">
          <g id="g524">
            <path id="path532" style="fill:url(#linearGradient430);fill-rule:evenodd" d="m4.641 17.322 8.757-1.243c0.348-0.05 0.641-0.211 0.883-0.48 0.239-0.293 0.344-0.613 0.321-0.957l-0.043-9.602c0-0.347-0.118-0.625-0.36-0.84-0.238-0.187-0.519-0.253-0.84-0.199l-8.718 1.399c-0.321 0.054-0.586 0.226-0.801 0.519-0.238 0.27-0.36 0.574-0.36 0.922v9.438c0 0.347 0.122 0.613 0.36 0.8 0.215 0.215 0.48 0.297 0.801 0.243z" inkscape:connector-curvature="0"/>
          </g>
        </g>
      </g>
      <path id="path534" style="fill-rule:evenodd;fill:#8da0a6" d="m5.199 16.962 7.922-1.16c0.293-0.055 0.559-0.203 0.801-0.441 0.211-0.239 0.316-0.52 0.316-0.84l-0.039-8.762c0-0.316-0.105-0.57-0.32-0.758-0.238-0.187-0.504-0.254-0.801-0.199l-7.918 1.32c-0.265 0.024-0.508 0.172-0.719 0.438-0.214 0.265-0.32 0.547-0.32 0.84v8.562c0 0.32 0.106 0.57 0.32 0.758 0.211 0.187 0.465 0.266 0.758 0.242z" inkscape:connector-curvature="0"/>
      <g id="g536">
        <g id="g538">
          <g id="g544">
            <path id="path552" style="fill-rule:evenodd;fill:url(#linearGradient546)" d="m5.879 7.482c0-0.293-0.078-0.535-0.238-0.719-0.161-0.215-0.36-0.32-0.602-0.32-0.238 0-0.437 0.105-0.598 0.32-0.187 0.184-0.281 0.426-0.281 0.719s0.094 0.531 0.281 0.718c0.161 0.215 0.36 0.321 0.598 0.321 0.242 0 0.441-0.106 0.602-0.321 0.16-0.187 0.238-0.425 0.238-0.718z" inkscape:connector-curvature="0"/>
          </g>
        </g>
      </g>
      <g id="g554">
        <g id="g556">
          <g id="g562">
            <path id="path570" style="fill-rule:evenodd;fill:url(#radialGradient564)" d="m5.801 7.482c0-0.215-0.067-0.403-0.199-0.559-0.137-0.16-0.282-0.242-0.442-0.242-0.187 0-0.332 0.082-0.441 0.242-0.133 0.156-0.199 0.344-0.199 0.559 0 0.211 0.066 0.386 0.199 0.519 0.109 0.16 0.254 0.238 0.441 0.238 0.16 0 0.305-0.078 0.442-0.238 0.132-0.16 0.199-0.336 0.199-0.519z" inkscape:connector-curvature="0"/>
          </g>
        </g>
      </g>
      <path id="path572" style="fill-rule:evenodd;fill:#c3c4c4" d="m5.602 7.72 0.078-0.32-0.961-0.321-0.078 0.282 0.961 0.359z" inkscape:connector-curvature="0"/>
      <g id="g574">
        <g id="g576">
          <g id="g582">
            <path id="path590" style="fill-rule:evenodd;fill:url(#radialGradient584)" d="m5.602 7.72 0.078-0.277-0.961-0.321-0.078 0.239 0.961 0.359z" inkscape:connector-curvature="0"/>
          </g>
        </g>
      </g>
      <g id="g592">
        <g id="g594">
          <g id="g600">
            <path id="path608" style="fill-rule:evenodd;fill:url(#linearGradient602)" d="m14.16 5.962c0-0.297-0.082-0.535-0.238-0.723-0.188-0.21-0.402-0.316-0.641-0.316-0.215 0-0.414 0.106-0.601 0.316-0.16 0.215-0.239 0.454-0.239 0.723 0 0.266 0.079 0.504 0.239 0.719 0.187 0.183 0.386 0.281 0.601 0.281 0.239 0 0.453-0.094 0.641-0.281 0.156-0.215 0.238-0.453 0.238-0.719z" inkscape:connector-curvature="0"/>
          </g>
        </g>
      </g>
      <g id="g610">
        <g id="g612">
          <g id="g618">
            <path id="path626" style="fill-rule:evenodd;fill:url(#radialGradient620)" d="m14.039 5.919c0-0.211-0.066-0.387-0.199-0.519-0.106-0.161-0.254-0.239-0.442-0.239-0.187 0-0.332 0.078-0.437 0.239-0.133 0.132-0.199 0.308-0.199 0.519 0 0.215 0.066 0.403 0.199 0.563 0.105 0.16 0.25 0.238 0.437 0.238 0.43 0 0.641-0.266 0.641-0.801z" inkscape:connector-curvature="0"/>
          </g>
        </g>
      </g>
      <path id="path628" style="fill-rule:evenodd;fill:#c3c4c4" d="m13.879 6.2 0.082-0.32-0.961-0.32-0.078 0.281 0.957 0.359z" inkscape:connector-curvature="0"/>
      <g id="g630">
        <g id="g632">
          <g id="g638">
            <path id="path646" style="fill-rule:evenodd;fill:url(#radialGradient640)" d="m13.879 6.2 0.043-0.281-0.961-0.32-0.039 0.242 0.957 0.359z" inkscape:connector-curvature="0"/>
          </g>
        </g>
      </g>
      <g id="g648">
        <g id="g650">
          <g id="g656">
            <path id="path664" style="fill-rule:evenodd;fill:url(#linearGradient658)" d="m14.16 14.521c0-0.321-0.094-0.586-0.281-0.801-0.16-0.211-0.371-0.32-0.641-0.32-0.265 0-0.476 0.109-0.636 0.32-0.188 0.215-0.282 0.48-0.282 0.801 0 0.293 0.094 0.558 0.282 0.801 0.16 0.21 0.371 0.32 0.636 0.32 0.27 0 0.481-0.11 0.641-0.32 0.187-0.243 0.281-0.508 0.281-0.801z" inkscape:connector-curvature="0"/>
          </g>
        </g>
      </g>
      <g id="g666">
        <g id="g668">
          <g id="g674">
            <path id="path682" style="fill-rule:evenodd;fill:url(#radialGradient676)" d="m14.078 14.482c0-0.215-0.066-0.414-0.199-0.602-0.16-0.16-0.332-0.238-0.52-0.238-0.187 0-0.347 0.078-0.48 0.238-0.133 0.188-0.199 0.387-0.199 0.602 0 0.238 0.066 0.437 0.199 0.597 0.133 0.188 0.293 0.282 0.48 0.282 0.188 0 0.36-0.094 0.52-0.282 0.133-0.16 0.199-0.359 0.199-0.597z" inkscape:connector-curvature="0"/>
          </g>
        </g>
      </g>
      <path id="path684" style="fill-rule:evenodd;fill:#c3c4c4" d="m13.879 14.802 0.082-0.359-1.039-0.364-0.082 0.321 1.039 0.402z" inkscape:connector-curvature="0"/>
      <g id="g686">
        <g id="g688">
          <g id="g694">
            <path id="path702" style="fill-rule:evenodd;fill:url(#radialGradient696)" d="m13.879 14.802 0.043-0.32-1.043-0.36-0.039 0.278 1.039 0.402z" inkscape:connector-curvature="0"/>
          </g>
        </g>
      </g>
      <g id="g704">
        <g id="g706">
          <g id="g712">
            <path id="path720" style="fill-rule:evenodd;fill:url(#linearGradient714)" d="m5.922 15.802c0-0.293-0.094-0.563-0.281-0.801-0.188-0.215-0.403-0.32-0.641-0.32-0.266 0-0.492 0.105-0.68 0.32-0.187 0.238-0.281 0.508-0.281 0.801 0 0.32 0.094 0.586 0.281 0.797 0.188 0.215 0.414 0.32 0.68 0.32 0.238 0 0.453-0.105 0.641-0.32 0.187-0.211 0.281-0.477 0.281-0.797z" inkscape:connector-curvature="0"/>
          </g>
        </g>
      </g>
      <g id="g722">
        <g id="g724">
          <g id="g730">
            <path id="path738" style="fill-rule:evenodd;fill:url(#radialGradient732)" d="m5.801 15.802c0-0.242-0.067-0.441-0.199-0.602-0.137-0.16-0.297-0.238-0.481-0.238-0.215 0-0.387 0.078-0.519 0.238-0.137 0.161-0.204 0.36-0.204 0.602 0 0.238 0.067 0.437 0.204 0.598 0.132 0.16 0.304 0.242 0.519 0.242 0.184 0 0.348-0.082 0.481-0.242 0.132-0.161 0.199-0.36 0.199-0.598z" inkscape:connector-curvature="0"/>
          </g>
        </g>
      </g>
      <path id="path740" style="fill-rule:evenodd;fill:#c3c4c4" d="m5.602 16.079 0.078-0.32-1.039-0.398-0.082 0.359 1.043 0.359z" inkscape:connector-curvature="0"/>
      <g id="g742">
        <g id="g744">
          <g id="g750">
            <path id="path758" style="fill-rule:evenodd;fill:url(#radialGradient752)" d="m5.602 16.079 0.078-0.277-1.039-0.402-0.082 0.32 1.043 0.359z" inkscape:connector-curvature="0"/>
          </g>
        </g>
      </g>
      <path id="path760" style="fill-rule:evenodd;fill:#3a3f40" d="m5.961 6.361 0.117 10.281 6.641-0.961v-10.602l-6.758 1.282z" inkscape:connector-curvature="0"/>
      <g id="g762">
        <g id="g764">
          <g id="g770">
            <path id="path784" style="fill-rule:evenodd;fill:url(#linearGradient772)" d="m6.48 16.282 5.68-0.921v-9.719l-5.879 1c-0.187 0.023-0.386 0.226-0.601 0.597-0.399 0.723-0.602 1.934-0.602 3.641 0 1.68 0.242 3.082 0.723 4.199l0.679 1.203z" inkscape:connector-curvature="0"/>
          </g>
        </g>
      </g>
      <g id="g786">
        <g id="g788">
          <g id="g794">
            <path id="path808" style="fill-rule:evenodd;fill:url(#linearGradient796)" d="m6.48 11.322c-0.082 0.21-0.199 0.304-0.359 0.277-0.242-0.106-0.402-0.172-0.48-0.199 0.054 0.535 0.132 1 0.238 1.402l1.281-0.16c0.028 0.027-0.027 0.172-0.16 0.437-0.027 0.11 0.027 0.227 0.16 0.364 0.16 0.156 0.371 0.226 0.641 0.199 0.293-0.028 0.504-0.121 0.64-0.281 0.106-0.133 0.118-0.282 0.039-0.442l-0.242-0.238c-0.05-0.082-0.05-0.149 0-0.199l1.203-0.16c-0.109-0.43-0.16-0.829-0.16-1.2 0.051-0.136 0.133-0.148 0.239-0.043 0.105 0.11 0.214 0.133 0.32 0.082 0.133-0.082 0.199-0.308 0.199-0.679 0-0.403-0.051-0.684-0.16-0.84-0.106-0.137-0.211-0.149-0.32-0.043l-0.321 0.242c0.028-0.32 0.11-0.762 0.242-1.32l-1.402 0.238 0.121 0.242c0.106 0.16 0.094 0.321-0.039 0.481-0.16 0.183-0.387 0.277-0.68 0.277-0.507 0-0.734-0.145-0.679-0.437l0.121-0.403-1.043 0.16c-0.133 0.481-0.211 0.895-0.238 1.243l0.199-0.243c0.265-0.293 0.48-0.144 0.64 0.442 0.079 0.293 0.079 0.558 0 0.801z" inkscape:connector-curvature="0"/>
          </g>
        </g>
      </g>
      <path id="path810" style="fill-rule:evenodd;fill:#8a8e8f" d="m12.16 15.322v-9.68h-0.082c-0.183 0.183-0.371 0.508-0.558 0.957-0.399 0.933-0.598 2.109-0.598 3.523 0 1.36 0.183 2.532 0.558 3.52 0.399 0.801 0.625 1.359 0.68 1.68z" inkscape:connector-curvature="0"/>
      <g id="g812">
        <g id="g814">
          <g id="g820">
            <path id="path832" style="fill-rule:evenodd;fill:url(#linearGradient822)" d="m10 14.599-1.32 0.121c0.027 0.027 0.105 0.094 0.242 0.199 0.183 0.11 0.25 0.215 0.199 0.32-0.055 0.137-0.226 0.204-0.519 0.204-0.536 0-0.84-0.11-0.922-0.321-0.028-0.082-0.055-0.175-0.078-0.281l-0.961 0.121c0.054 0.184 0.171 0.465 0.359 0.84l0.121-0.16c0.106-0.188 0.371-0.082 0.801 0.32l0.078 0.078 3.16-0.519c-0.32-0.266-0.519-0.332-0.601-0.199l-0.161 0.16c-0.21-0.375-0.343-0.668-0.398-0.883z" inkscape:connector-curvature="0"/>
          </g>
        </g>
      </g>
      <g id="g834">
        <g id="g836">
          <g id="g842">
            <path id="path856" style="fill-rule:evenodd;fill:url(#linearGradient844)" d="m6.48 6.599-0.039 0.16 1.36-0.16c0.054 0.055-0.067 0.187-0.36 0.402-0.082 0.078-0.093 0.188-0.043 0.321 0.055 0.16 0.227 0.226 0.524 0.199 0.316-0.028 0.586-0.106 0.797-0.242 0.215-0.133 0.308-0.266 0.281-0.399 0-0.027-0.039-0.094-0.121-0.199-0.024-0.082 0-0.149 0.082-0.199l1.277-0.121 0.16-0.442-3.918 0.68z" inkscape:connector-curvature="0"/>
          </g>
        </g>
      </g>
    </g>
  </g>
<metadata><rdf:RDF><cc:Work><dc:format>image/svg+xml</dc:format><dc:type rdf:resource="http://purl.org/dc/dcmitype/StillImage"/><cc:license rdf:resource="http://creativecommons.org/licenses/publicdomain/"/><dc:publisher><cc:Agent rdf:about="http://openclipart.org/"><dc:title>Openclipart</dc:title></cc:Agent></dc:publisher></cc:Work><cc:License rdf:about="http://creativecommons.org/licenses/publicdomain/"><cc:permits rdf:resource="http://creativecommons.org/ns#Reproduction"/><cc:permits rdf:resource="http://creativecommons.org/ns#Distribution"/><cc:permits rdf:resource="http://creativecommons.org/ns#DerivativeWorks"/></cc:License></rdf:RDF></metadata></svg>
